@startuml

interface Transport {
  +bookTicket()
  +getTransportType()
}

class Plane {
  +bookTicket()
  +getTransportType()
}

class Boat {
  +bookTicket()
  +getTransportType()
}

class Train {
  +bookTicket()
  +getTransportType()
}

class Car {
  +bookTicket()
  +getTransportType()
}

class TransportFactory {
  +createTransport(transportType: String)
}
TransportFactory -- Plane:create
TransportFactory -- Car:create
TransportFactory -- Boat:create
TransportFactory -- Train:create
TransportFactory -- Client:ask for trip
Plane ..|> Transport
Boat ..|> Transport
Train ..|> Transport
Car ..|> Transport
Client .. Transport:use

@enduml
